# xmcd
#
# Track frame offsets:
#	150
#	15326
#	31871
#	48537
#	66303
#	79828
#	98925
#	118584
#	131575
#	149656
#	167603
#	185695
#	204375
#	224040
#
# Disc length: 3227 seconds
#
# Revision: 1
# Processed by: cddbd v1.4PL0 Copyright (c) Steve Scherf et al.
# Submitted via: audiograbber 1.80
#
DISCID=cf0c990e
DTITLE=Wanessa Camargo - Wanessa Camargo
DYEAR=1900
DGENRE=
TTITLE0=Eu quero ser o seu amor
TTITLE1=Se aquela estrela é sua
TTITLE2=Tanta saudade
TTITLE3=Tudo bem
TTITLE4=Um grande amor
TTITLE5=Amor de verão
TTITLE6=Gostar de mim
TTITLE7=Enfeitiçada
TTITLE8=Eu estarei aqui
TTITLE9=De onde você vai surgir
TTITLE10=Um outro alguém
TTITLE11=Vou gritar seu nome
TTITLE12=Never goin' that way again
TTITLE13=You can let me down
EXTD=
EXTT0=
EXTT1=
EXTT2=
EXTT3=
EXTT4=
EXTT5=
EXTT6=
EXTT7=
EXTT8=
EXTT9=
EXTT10=
EXTT11=
EXTT12=
EXTT13=
PLAYORDER=
